<svg xmlns="http://www.w3.org/2000/svg" height="110" width="300"><path fill="#e33832" d="M0 0h120v110H0z"/><g style="line-height:125%;-inkscape-font-specification:Rachana" font-weight="400" font-size="60" font-family="Faster One" letter-spacing="2" word-spacing="0" fill="#fff"><path style="-inkscape-font-specification:'Faster One'" d="M102.312 98.486h-12l15.78-37.5h17.64l2.64 37.5h-12.06l-.24-5.94h-9.42l-2.34 5.94zm10.86-15.48v-10.5h-.6l-4.2 10.5h4.8zm-24.78 15.24l-24.6-2.64h25.74l-1.14 2.64zm2.46-5.82l-24.6-2.64h25.74l-1.14 2.64zm2.46-5.76l-24.6-2.64h25.68l-1.08 2.64zm2.4-5.76l-24.54-2.64h25.68l-1.14 2.64zm2.46-5.76l-24.54-2.64h25.62l-1.08 2.64zm4.86-11.58l-24.48-2.58h25.56l-1.08 2.58zm-2.46 5.76l-24.48-2.58h25.56l-1.08 2.58zm2.46-5.76l1.08-2.58h-25.56l24.48 2.58z"/><path style="-inkscape-font-specification:'Faster One'" d="M146.166 75.206l-25.44-2.7h25.92l-.48 2.7zm-1.02 5.76l-25.38-2.7h25.86l-.48 2.7zm3.06-17.28l-25.38-2.7h25.86l-.48 2.7zm-26.4 3.06h25.86l-.48 2.7-25.38-2.7zm22.8 17.28q-.24 1.98-.3 2.7l-25.38-2.7h25.68zm-.42 5.76q0 1.44.18 2.7l-25.38-2.7h25.2zm1.02 5.82q.78 1.68 1.92 2.7l-25.38-2.7h23.46zm15.84-6.48q2.1 0 3-.54.9-.6 1.26-2.64l4.44-24.96h11.4l-3.72 21.06q-.9 5.1-2.1 8.22-1.14 3.12-3.24 5.28-2.1 2.16-5.22 3-3.06.84-7.8.84-7.26 0-10.2-2.16-2.88-2.22-2.88-7.56 0-2.94.84-7.62l3.72-21.06h11.4l-4.98 28.14h4.08z"/><path style="-inkscape-font-specification:'Faster One'" d="M226.913 70.586h-8.28l-4.86 27.9h-11.4l4.86-27.9h-8.22l1.74-9.6h27.9l-1.74 9.6zm-26.4 27.72l-25.44-2.7h25.92l-.48 2.7zm2.04-11.58l-25.44-2.7h25.92l-.48 2.7zm1.02-5.76l-25.44-2.7h25.92l-.48 2.7zm1.02-5.76l-25.44-2.7h25.92l-.48 2.7zm-3.06 17.28l-25.44-2.7h25.92l-.48 2.7zm-4.14-23.04l-25.44-2.7h25.86l-.42 2.7zm.96-5.76l-25.38-2.7h25.86l-.48 2.7z"/><path style="-inkscape-font-specification:'Faster One'" d="M256.847 89.126q2.34 0 3.48-.54 1.14-.6 1.5-2.64l2.76-15.6h-4.8q-2.28 0-3.42.6-1.14.54-1.5 2.58l-2.76 15.6h4.74zm4.92-29.04q7.62 0 10.86 3 3.24 2.94 3.24 9.12t-1.98 12.96q-1.92 6.72-6.18 10.5-4.2 3.72-12.36 3.72-8.1 0-11.34-2.94-3.24-3-3.24-9.18 0-2.94.84-7.74.84-4.86 2.22-8.34 1.38-3.54 3.72-6.12 4.5-4.98 14.22-4.98zm-21.9 19.38q-.12.48-.24 1.32l-23.58-2.52h24l-.18 1.2zm-.66 4.56q-.18 1.38-.18 2.52l-23.64-2.52h23.82zm2.28-11.52l-.72 2.46-23.28-2.46h24zm-2.4 17.28q.24 1.68.42 2.52l-23.34-2.52h22.92zm4.86-23.04q-.84 1.56-1.2 2.4l-22.44-2.4h23.64zm-3.06 28.86q.78 1.38 1.8 2.22l-20.76-2.22h18.96zm8.76-34.62q-1.74 1.08-2.7 1.98l-18.36-1.98h21.06z"/></g><g style="line-height:125%;-inkscape-font-specification:'Faster One'" font-weight="400" font-size="60" font-family="Faster One" letter-spacing="2" word-spacing="0" fill="#fff"><path d="M63.079 11.133q4.32 0 6.24 1.5 1.98 1.5 1.98 4.62 0 4.56-2.04 7.5-1.98 2.94-4.86 3.66l-.06.36q5.4 1.02 5.4 7.14 0 5.4-2.94 9.06t-8.28 3.66h-20.52l6.6-37.5h18.48zm-6.6 22.56h-4.5l-1.08 6.12h4.44q1.5 0 2.28-1.2.78-1.2.78-3.06t-1.92-1.86zm1.68-14.34h-3.6l-1.02 5.58h3.54q2.76 0 2.76-3.9 0-1.68-1.68-1.68zm-21.96 29.1l-25.44-2.7h25.92l-.48 2.7zm2.04-11.58l-25.44-2.7h25.92l-.48 2.7zm1.02-5.76l-25.44-2.7h25.92l-.48 2.7zm1.02-5.76l-25.44-2.7h25.92l-.48 2.7zm1.02-5.76l-25.44-2.7h25.86l-.42 2.7zm-4.08 23.04l-25.44-2.7h25.92l-.48 2.7zm5.04-28.8l-25.38-2.7h25.86l-.48 2.7z"/><path d="M88.445 25.353l-25.44-2.7h25.92l-.48 2.7zm-1.02 5.76l-25.38-2.7h25.86l-.48 2.7zm3.06-17.28l-25.38-2.7h25.86l-.48 2.7zm-26.4 3.06h25.86l-.48 2.7-25.38-2.7zm22.8 17.28q-.24 1.98-.3 2.7l-25.38-2.7h25.68zm-.42 5.76q0 1.44.18 2.7l-25.38-2.7h25.2zm1.02 5.82q.78 1.68 1.92 2.7l-25.38-2.7h23.46zm15.84-6.48q2.1 0 3-.54.9-.6 1.26-2.64l4.44-24.96h11.4l-3.72 21.06q-.9 5.1-2.1 8.22-1.14 3.12-3.24 5.28-2.1 2.16-5.22 3-3.06.84-7.8.84-7.26 0-10.2-2.16-2.88-2.22-2.88-7.56 0-2.94.84-7.62l3.72-21.06h11.4l-4.98 28.14h4.08z"/><path d="M139.012 48.453l-25.38-2.7h25.86l-.48 2.7zm1.02-5.82l-25.38-2.7h25.8l-.42 2.7zm.42-5.76l-25.44-2.7h24.9l.54 2.7zm-1.14-5.76l-25.44-2.7h24.9l.54 2.7zm-2.82-14.22l.54 2.7-25.38-2.7h24.84zm1.14 5.76l.54 2.7-25.38-2.7h24.84zm-1.68-8.82l-25.38-2.7h24.84l.54 2.7zm13.86-2.7l.78 13.2h.42l5.52-13.2h12.6l-15.12 27.3-1.74 10.2h-11.4l1.74-10.2-5.4-27.3h12.6z"/></g></svg>