<?xml version="1.0" encoding="UTF-8" standalone="no"?>
<svg
   xmlns:dc="http://purl.org/dc/elements/1.1/"
   xmlns:cc="http://creativecommons.org/ns#"
   xmlns:rdf="http://www.w3.org/1999/02/22-rdf-syntax-ns#"
   xmlns:svg="http://www.w3.org/2000/svg"
   xmlns="http://www.w3.org/2000/svg"
   version="1.1"
   id="svg2"
   width="300"
   height="110">
  <metadata
     id="metadata28">
    <rdf:RDF>
      <cc:Work
         rdf:about="">
        <dc:format>image/svg+xml</dc:format>
        <dc:type
           rdf:resource="http://purl.org/dc/dcmitype/StillImage" />
        <dc:title></dc:title>
      </cc:Work>
    </rdf:RDF>
  </metadata>
  <defs
     id="defs26" />
  <path
     style="fill:#e33832"
     id="path4"
     d="m 0,0 142.8169,0 0,110 L 0,110 Z" />
  <g
     id="g16"
     fill="#fff"
     word-spacing="0"
     letter-spacing="2"
     font-family="Faster One"
     font-size="60"
     font-weight="400"
     style="line-height:125%;-inkscape-font-specification:'Faster One'" />
  <g
     id="text4156"
     style="font-style:normal;font-weight:normal;font-size:45px;line-height:100%;font-family:sans-serif;letter-spacing:2px;word-spacing:0px;fill:#ffffff;fill-opacity:1;stroke:none;stroke-width:1px;stroke-linecap:butt;stroke-linejoin:miter;stroke-opacity:1">
    <path
       id="path4278"
       style="font-style:normal;font-variant:normal;font-weight:normal;font-stretch:normal;font-size:50px;line-height:100%;font-family:'Faster One';-inkscape-font-specification:'Faster One, Normal';text-align:start;writing-mode:lr-tb;text-anchor:start;fill:#ffffff"
       d="m 42.75493,31.164084 q -0.1,0.4 -0.2,1.1 l -19.65,-2.1 20,0 -0.15,1 z m -0.55,3.8 q -0.15,1.15 -0.15,2.1 l -19.7,-2.1 19.85,0 z m 1.9,-9.6 -0.6,2.05 -19.4,-2.05 20,0 z m -2,14.4 q 0.2,1.4 0.35,2.1 l -19.45,-2.1 19.1,0 z m 4.05,-19.2 q -0.7,1.3 -1,2 l -18.7,-2 19.7,0 z m -2.55,24.05 q 0.65,1.15 1.5,1.85 l -17.3,-1.85 15.8,0 z m 7.3,-28.85 q -1.45,0.9 -2.25,1.65 l -15.3,-1.65 17.55,0 z m 4.4,32 q -6.3,0 -9.05,-2.45 -2.7,-2.45 -2.7,-7.55 0,-2.15 0.7,-6.35 1.5,-8.6 5.15,-12.5 3.7,-3.9 11.65,-3.9 1.85,0 4.2,0.4 2.4,0.35 3.5,0.9 l -2.8,7.65 q -2.95,-0.7 -5.55,-0.7 -2.55,0 -3.65,0.5 -1.1,0.5 -1.35,2 l -2.3,13.1 q 1.8,0.4 3.7,0.4 4.05,0 7.4,-1.2 l -0.8,8.4 q -3.2,1.3 -8.1,1.3 z" />
    <path
       id="path4280"
       style="font-style:normal;font-variant:normal;font-weight:normal;font-stretch:normal;font-size:50px;line-height:100%;font-family:'Faster One';-inkscape-font-specification:'Faster One, Normal';text-align:start;writing-mode:lr-tb;text-anchor:start;fill:#ffffff"
       d="m 88.934618,47.014084 -10,0 13.15,-31.25 14.700002,0 2.2,31.25 -10.050002,0 -0.2,-4.95 -7.85,0 -1.95,4.95 z m 9.05,-12.9 0,-8.75 -0.5,0 -3.5,8.75 4,0 z m -20.65,12.7 -20.5,-2.2 21.45,0 -0.95,2.2 z m 2.05,-4.85 -20.5,-2.2 21.45,0 -0.95,2.2 z m 2.05,-4.8 -20.5,-2.2 21.4,0 -0.9,2.2 z m 2,-4.8 -20.45,-2.2 21.4,0 -0.95,2.2 z m 2.05,-4.8 -20.45,-2.2 21.35,0 -0.9,2.2 z m 4.05,-9.65 -20.4,-2.15 21.3,0 -0.9,2.15 z m -2.05,4.8 -20.4,-2.15 21.3,0 -0.9,2.15 z m 2.05,-4.8 0.9,-2.15 -21.3,0 20.4,2.15 z" />
    <path
       id="path4282"
       style="font-style:normal;font-variant:normal;font-weight:normal;font-stretch:normal;font-size:50px;line-height:100%;font-family:'Faster One';-inkscape-font-specification:'Faster One, Normal';text-align:start;writing-mode:lr-tb;text-anchor:start;fill:#ffffff"
       d="m 144.61274,15.764084 q 8.55,0 8.55,7.65 0,3.15 -0.95,6 -1.75,5.4 -5.5,7.2 l 3.3,10.4 -10.45,0 -2.3,-9.3 -2.05,0 -1.6,9.3 -9.5,0 5.5,-31.25 15,0 z m -5.85,14.25 q 1.7,0 2.55,-0.35 0.9,-0.4 1.2,-2.15 0.35,-1.8 0.35,-2.2 0,-1 -0.8,-1.25 -0.75,-0.3 -2.5,-0.3 l -1.9,0 -1.1,6.25 2.2,0 z m -16.15,16.85 -21.2,-2.25 21.6,0 -0.4,2.25 z m 1.7,-9.65 -21.2,-2.25 21.6,0 -0.4,2.25 z m 1.65,-9.6 -21.15,-2.25 21.55,0 -0.4,2.25 z m 0.85,-4.8 -21.15,-2.25 21.55,0 -0.4,2.25 z m -3.35,19.2 -21.2,-2.25 21.6,0 -0.4,2.25 z m 4.2,-24 -21.15,-2.25 21.55,0 -0.4,2.25 z m -2.55,14.4 -21.15,-2.25 21.55,0 -0.4,2.25 z" />
    <path
       id="path4284"
       style="font-style:normal;font-variant:normal;font-weight:normal;font-stretch:normal;font-size:50px;line-height:100%;font-family:'Faster One';-inkscape-font-specification:'Faster One, Normal';text-align:start;writing-mode:lr-tb;text-anchor:start;fill:#ffffff"
       d="m 92.787743,89.214084 q 1.95,0 2.9,-0.45 0.95,-0.5 1.25,-2.2 l 2.3,-13 -4,0 q -1.9,0 -2.85,0.5 -0.95,0.45 -1.25,2.15 l -2.3,13 3.95,0 z m 4.1,-24.2 q 6.349997,0 9.049997,2.5 2.7,2.45 2.7,7.6 0,5.15 -1.65,10.8 -1.6,5.6 -5.15,8.75 -3.499997,3.1 -10.299997,3.1 -6.75,0 -9.45,-2.45 -2.7,-2.5 -2.7,-7.65 0,-2.45 0.7,-6.45 0.7,-4.05 1.85,-6.95 1.15,-2.95 3.1,-5.1 3.75,-4.15 11.85,-4.15 z m -18.25,16.15 q -0.1,0.4 -0.2,1.1 l -19.65,-2.1 20,0 -0.15,1 z m -0.55,3.8 q -0.15,1.15 -0.15,2.1 l -19.7,-2.1 19.85,0 z m 1.9,-9.6 -0.6,2.05 -19.4,-2.05 20,0 z m -2,14.4 q 0.2,1.4 0.35,2.1 l -19.45,-2.1 19.1,0 z m 4.05,-19.2 q -0.7,1.3 -1,2 l -18.7,-2 19.7,0 z m -2.55,24.05 q 0.65,1.15 1.5,1.85 l -17.3,-1.85 15.8,0 z m 7.3,-28.85 q -1.45,0.9 -2.25,1.65 l -15.3,-1.65 17.55,0 z" />
    <path
       id="path4286"
       style="font-style:normal;font-variant:normal;font-weight:normal;font-stretch:normal;font-size:50px;line-height:100%;font-family:'Faster One';-inkscape-font-specification:'Faster One, Normal';text-align:start;writing-mode:lr-tb;text-anchor:start;fill:#ffffff"
       d="m 142.4604,65.764084 q 8.55,0 8.55,7.65 0,3.15 -0.95,6 -1.75,5.4 -5.5,7.2 l 3.3,10.4 -10.45,0 -2.3,-9.3 -2.05,0 -1.6,9.3 -9.5,0 5.5,-31.25 15,0 z m -5.85,14.25 q 1.7,0 2.55,-0.35 0.9,-0.4 1.2,-2.15 0.35,-1.8 0.35,-2.2 0,-1 -0.8,-1.25 -0.75,-0.3 -2.5,-0.3 l -1.9,0 -1.1,6.25 2.2,0 z m -16.15,16.85 -21.200001,-2.25 21.600001,0 -0.4,2.25 z m 1.7,-9.65 -21.2,-2.25 21.6,0 -0.4,2.25 z m 1.65,-9.6 -21.15,-2.25 21.55,0 -0.4,2.25 z m 0.85,-4.8 -21.15,-2.25 21.55,0 -0.4,2.25 z m -3.35,19.2 -21.2,-2.25 21.6,0 -0.4,2.25 z m 4.2,-24 -21.15,-2.25 21.55,0 -0.4,2.25 z m -2.55,14.4 -21.15,-2.25 21.55,0 -0.4,2.25 z" />
    <path
       id="path4288"
       style="font-style:normal;font-variant:normal;font-weight:normal;font-stretch:normal;font-size:50px;line-height:100%;font-family:'Faster One';-inkscape-font-specification:'Faster One, Normal';text-align:start;writing-mode:lr-tb;text-anchor:start;fill:#ffffff"
       d="m 182.50649,65.764084 q 6.45,0 9.15,2.3 2.75,2.25 2.75,7.35 0,2.6 -0.6,6 -1.5,8.4 -5.15,12 -3.6,3.6 -11.65,3.6 l -13.3,0 5.5,-31.25 13.3,0 z m -1.3,8 -3.95,0 -2.65,15.25 3.95,0 q 1.95,0 2.9,-0.45 0.95,-0.5 1.25,-2.2 l 1.75,-9.95 q 0.05,-0.3 0.05,-0.8 0,-1.15 -0.8,-1.5 -0.8,-0.35 -2.5,-0.35 z m -19,23.1 -21.2,-2.25 21.6,0 -0.4,2.25 z m 1.7,-9.65 -21.2,-2.25 21.6,0 -0.4,2.25 z m 0.85,-4.8 -21.2,-2.25 21.6,0 -0.4,2.25 z m 0.85,-4.8 -21.2,-2.25 21.6,0 -0.4,2.25 z m 0.85,-4.8 -21.2,-2.25 21.55,0 -0.35,2.25 z m -3.4,19.2 -21.2,-2.25 21.6,0 -0.4,2.25 z m 4.2,-24 -21.15,-2.25 21.55,0 -0.4,2.25 z" />
    <path
       id="path4290"
       style="font-style:normal;font-variant:normal;font-weight:normal;font-stretch:normal;font-size:50px;line-height:100%;font-family:'Faster One';-inkscape-font-specification:'Faster One, Normal';text-align:start;writing-mode:lr-tb;text-anchor:start;fill:#ffffff"
       d="m 228.84634,85.214084 -9.5,0 -0.65,3.8 11.65,0 -1.4,8 -21.15,0 5.5,-31.25 20.9,0 -2.6,8 -10.25,0 -0.7,4.2 9.5,0 -1.3,7.25 z m -22.55,11.65 -21.2,-2.25 21.6,0 -0.4,2.25 z m 1.7,-9.65 -21.2,-2.25 21.6,0 -0.4,2.25 z m 0.85,-4.8 -21.2,-2.25 21.6,0 -0.4,2.25 z m 0.85,-4.8 -21.2,-2.25 21.6,0 -0.4,2.25 z m 0.85,-4.8 -21.2,-2.25 21.55,0 -0.35,2.25 z m -3.4,19.2 -21.2,-2.25 21.6,0 -0.4,2.25 z m 4.2,-24 -21.15,-2.25 21.55,0 -0.4,2.25 z" />
    <path
       id="path4292"
       style="font-style:normal;font-variant:normal;font-weight:normal;font-stretch:normal;font-size:50px;line-height:100%;font-family:'Faster One';-inkscape-font-specification:'Faster One, Normal';text-align:start;writing-mode:lr-tb;text-anchor:start;fill:#ffffff"
       d="m 266.62446,65.764084 q 8.55,0 8.55,7.65 0,3.15 -0.95,6 -1.75,5.4 -5.5,7.2 l 3.3,10.4 -10.45,0 -2.3,-9.3 -2.05,0 -1.6,9.3 -9.5,0 5.5,-31.25 15,0 z m -5.85,14.25 q 1.7,0 2.55,-0.35 0.9,-0.4 1.2,-2.15 0.35,-1.8 0.35,-2.2 0,-1 -0.8,-1.25 -0.75,-0.3 -2.5,-0.3 l -1.9,0 -1.1,6.25 2.2,0 z m -16.15,16.85 -21.2,-2.25 21.6,0 -0.4,2.25 z m 1.7,-9.65 -21.2,-2.25 21.6,0 -0.4,2.25 z m 1.65,-9.6 -21.15,-2.25 21.55,0 -0.4,2.25 z m 0.85,-4.8 -21.15,-2.25 21.55,0 -0.4,2.25 z m -3.35,19.2 -21.2,-2.25 21.6,0 -0.4,2.25 z m 4.2,-24 -21.15,-2.25 21.55,0 -0.4,2.25 z m -2.55,14.4 -21.15,-2.25 21.55,0 -0.4,2.25 z" />
  </g>
</svg>
